<svg width="203" height="46" viewBox="0 0 203 46" fill="none" xmlns="http://www.w3.org/2000/svg">
<path d="M151.935 8.60285C151.836 8.50844 151.771 8.38482 151.748 8.25027C151.748 8.10603 151.818 8.03658 152.074 7.91906L154.708 6.58353L152.074 5.26403C151.818 5.1465 151.748 5.07706 151.748 4.93816C151.77 4.80323 151.836 4.67928 151.935 4.58558L152.784 3.36224C152.819 3.29401 152.868 3.23475 152.929 3.18928C152.991 3.14381 153.062 3.11339 153.137 3.10048C153.255 3.10048 153.393 3.22335 153.49 3.31416L155.509 5.451L155.99 2.53956C155.99 2.3045 156.059 2.09082 156.273 2.09082C156.376 2.10433 156.478 2.12758 156.577 2.16027L158.009 2.63037C158.223 2.70516 158.388 2.77461 158.388 2.94021C158.372 3.05671 158.33 3.16811 158.265 3.26608L156.871 5.90508L159.761 5.37087C159.848 5.36113 159.936 5.36113 160.023 5.37087C160.279 5.37087 160.279 5.62729 160.279 5.84098V7.36882C160.279 7.57716 160.279 7.83893 160.023 7.83893C159.936 7.85106 159.848 7.85106 159.761 7.83893L156.871 7.34745L158.255 9.9544C158.32 10.0543 158.362 10.1674 158.378 10.2856C158.378 10.4512 158.212 10.5207 157.998 10.5901L156.567 11.0602C156.468 11.0929 156.366 11.1162 156.262 11.1297C156.048 11.1297 156 10.9213 155.979 10.6863L155.53 7.79619L153.511 9.93303C153.421 10.0421 153.297 10.1174 153.158 10.1467C153.084 10.1348 153.013 10.1053 152.951 10.0608C152.89 10.0162 152.84 9.95779 152.806 9.89029L151.935 8.60285Z" fill="#EA7D17"/>
<path d="M156.262 11.3752C155.771 11.3752 155.728 10.841 155.696 10.6754L155.338 8.36229L153.735 10.0664C153.667 10.1602 153.575 10.2348 153.469 10.2831C153.364 10.3313 153.247 10.3516 153.131 10.342C153.016 10.3323 152.904 10.2931 152.808 10.228C152.712 10.1629 152.634 10.0741 152.581 9.97027L151.716 8.76295C151.573 8.62012 151.488 8.43015 151.476 8.22874C151.476 7.86548 151.775 7.73192 151.972 7.64111L154.109 6.57269L151.972 5.50427C151.785 5.41879 151.486 5.28524 151.486 4.92732C151.504 4.72508 151.593 4.53571 151.737 4.39311L152.597 3.18045C152.656 3.07523 152.74 2.98611 152.842 2.92091C152.943 2.85571 153.059 2.81642 153.18 2.8065C153.389 2.83188 153.58 2.93715 153.714 3.10032L155.317 4.80445L155.68 2.48064C155.68 2.32037 155.749 1.7915 156.241 1.7915C156.343 1.79669 156.444 1.81648 156.54 1.85027H156.615L158.068 2.32571C158.249 2.38982 158.634 2.51803 158.634 2.90266C158.625 3.04728 158.583 3.1879 158.511 3.314L157.368 5.45085L159.729 5.10361C159.831 5.08217 159.935 5.0732 160.039 5.0769C160.573 5.0769 160.573 5.64316 160.573 5.83013V7.35798C160.573 7.54495 160.573 8.10587 160.039 8.10587C159.934 8.11821 159.828 8.11821 159.724 8.10587L157.405 7.71056L158.522 9.81C158.607 9.9513 158.658 10.1104 158.671 10.2748C158.671 10.6594 158.287 10.809 158.105 10.8464L156.572 11.3432C156.478 11.3776 156.379 11.3974 156.278 11.402L156.262 11.3752ZM155.744 7.17635L156.278 10.6273C156.282 10.6977 156.293 10.7675 156.31 10.8357L156.417 10.8036L156.519 10.7769L157.934 10.3122C158.005 10.2782 158.07 10.2331 158.127 10.1786C158.127 10.1786 158.068 10.1145 158.041 10.0664L156.369 6.91458L159.825 7.50221C159.884 7.50829 159.943 7.50829 160.002 7.50221C160.007 7.44 160.007 7.37746 160.002 7.31524V5.83013C160.007 5.76614 160.007 5.70181 160.002 5.63782C159.945 5.63151 159.887 5.63151 159.831 5.63782L156.369 6.23079L158.025 3.111C158.058 3.05361 158.085 2.99269 158.105 2.92937C158.105 2.92937 158.046 2.92937 157.924 2.88129L156.412 2.38448L156.294 2.35242C156.294 2.35242 156.294 2.42721 156.294 2.54474L155.76 6.01711L153.319 3.51166C153.272 3.45842 153.216 3.41484 153.153 3.38345C153.153 3.38345 153.094 3.44221 153.057 3.50632L152.175 4.74569C152.126 4.80426 152.081 4.8668 152.042 4.93266C152.097 4.95349 152.151 4.97849 152.202 5.00745L155.349 6.57803L152.213 8.18066C152.063 8.25011 152.031 8.27682 152.026 8.2875C152.02 8.29819 152.122 8.38366 152.165 8.43708L153.035 9.6444C153.066 9.7022 153.112 9.75029 153.169 9.78329C153.169 9.78329 153.217 9.75124 153.313 9.65508L155.744 7.17635Z" fill="#EA7D17"/>
<path d="M101.441 32.4128L100.747 32.1297C100.377 31.9745 100.067 31.704 99.8627 31.3585C99.6587 31.013 99.5716 30.6109 99.6143 30.2119V10.5797C99.6143 9.05716 99.6678 7.18743 99.796 5.66493C99.7989 5.64187 99.7989 5.61853 99.796 5.59548C99.7946 5.32154 99.6847 5.05931 99.4905 4.86611C99.2963 4.6729 99.0335 4.56445 98.7596 4.56445H98.6528L91.3501 5.83053C91.1224 5.82792 90.9025 5.91298 90.7358 6.0681C90.5691 6.22321 90.4685 6.4365 90.4547 6.66378C90.441 6.89106 90.5152 7.11491 90.662 7.28897C90.8088 7.46302 91.0169 7.57395 91.2433 7.59877C92.6215 8.07422 93.0703 8.59774 93.0703 10.804V33.8125C93.0703 34.0533 93.1659 34.2843 93.3363 34.4546C93.5066 34.625 93.7376 34.7206 93.9784 34.7206H94.0799L101.249 33.9247C101.441 33.905 101.62 33.815 101.75 33.6721C101.88 33.5292 101.953 33.3433 101.954 33.1501C101.951 32.9873 101.898 32.8294 101.803 32.6975C101.707 32.5657 101.574 32.4664 101.42 32.4128H101.441Z" fill="#25365D"/>
<path d="M4.13468 30.9117V29.0099H4.10797V11.6267C4.1392 11.2944 4.04781 10.9621 3.85101 10.6925C3.65421 10.4229 3.36559 10.2345 3.03955 10.163L1.70403 9.83711H1.64526C1.46411 9.77817 1.30904 9.65818 1.2065 9.49763C1.10396 9.33709 1.06031 9.14593 1.08301 8.95679C1.10571 8.76765 1.19334 8.59224 1.33095 8.46052C1.46856 8.32879 1.64763 8.2489 1.83758 8.23448H13.2964C13.4867 8.24791 13.6664 8.32706 13.8048 8.45839C13.9432 8.58973 14.0316 8.76507 14.055 8.95443C14.0784 9.14378 14.0352 9.33536 13.9328 9.49638C13.8305 9.6574 13.6754 9.77785 13.4941 9.83711H13.4353L12.0998 10.163C11.806 10.2208 11.5405 10.3763 11.3465 10.6043C11.1525 10.8322 11.0414 11.1192 11.0313 11.4184V30.7034C11.0001 31.0357 11.0915 31.368 11.2883 31.6376C11.4851 31.9072 11.7737 32.0956 12.0998 32.1671L13.4353 32.493H13.4941C13.6754 32.5522 13.8305 32.6727 13.9328 32.8337C14.0352 32.9947 14.0784 33.1863 14.055 33.3757C14.0316 33.565 13.9432 33.7404 13.8048 33.8717C13.6664 34.003 13.4867 34.0822 13.2964 34.0956H1.86429C1.67434 34.0812 1.49528 34.0013 1.35766 33.8696C1.22005 33.7378 1.13242 33.5624 1.10972 33.3733C1.08702 33.1842 1.13067 32.993 1.23321 32.8325C1.33575 32.6719 1.49083 32.5519 1.67197 32.493H1.73074L3.06626 32.1671C3.35872 32.1067 3.62264 31.9504 3.81618 31.723C4.00973 31.4956 4.12182 31.2101 4.13468 30.9117Z" fill="#25365D"/>
<path d="M52.3028 32.7364C52.4097 32.8667 52.4688 33.0296 52.4702 33.1981L52.4488 33.2302C52.4489 33.3899 52.3968 33.5453 52.3003 33.6726C52.2039 33.7999 52.0684 33.8922 51.9146 33.9353C50.6524 34.3265 49.3492 34.5703 48.0309 34.6619C45.44 34.6619 43.7519 33.2729 43.6824 31.7344L43.6397 30.479V24.2608L42.6354 24.5973C40.6267 25.1796 38.4525 26.0183 38.4525 28.7802C38.4525 30.6606 39.3607 31.7932 40.9633 31.7932C41.1571 31.7932 41.3504 31.7735 41.5402 31.7344C41.5987 31.7265 41.658 31.7265 41.7165 31.7344C41.832 31.7344 41.9464 31.7572 42.053 31.8016C42.1597 31.846 42.2565 31.911 42.3379 31.9929C42.4193 32.0748 42.4838 32.172 42.5275 32.2789C42.5712 32.3858 42.5933 32.5003 42.5926 32.6158C42.5922 32.7292 42.5692 32.8414 42.5252 32.946C42.4812 33.0505 42.417 33.1453 42.3362 33.2248L42.2935 33.2622L42.2027 33.3317C41.1697 34.1771 39.8727 34.6327 38.538 34.6191C34.9374 34.6191 32.8486 32.8616 32.8486 29.4747C32.8486 25.6711 37.0475 24.2448 40.2528 23.5343L43.6397 22.749V20.4893C43.6397 16.894 41.8394 16.0553 39.8308 16.0553C39.2893 16.0798 38.7586 16.2143 38.2709 16.4506C38.1891 16.4894 38.0996 16.5095 38.0091 16.5094C37.8781 16.5113 37.7499 16.4716 37.6429 16.3961C37.5359 16.3206 37.4555 16.2131 37.4134 16.0891C37.3712 15.9651 37.3695 15.8309 37.4084 15.7058C37.4473 15.5807 37.5248 15.4712 37.6298 15.3929L37.8275 15.2754C39.3356 14.4577 41.0214 14.023 42.7369 14.0093C46.5725 14.0093 50.2158 15.644 50.2158 20.0352V28.9886C50.168 30.0439 50.2651 31.1008 50.5043 32.1297C50.9466 32.306 51.4099 32.4245 51.8826 32.4823C52.0476 32.5165 52.1959 32.6062 52.3028 32.7364Z" fill="#25365D"/>
<path d="M31.0749 32.5143H31.0161L29.6806 32.1885C29.3545 32.1169 29.0659 31.9286 28.8691 31.659C28.6723 31.3894 28.5809 31.0571 28.6122 30.7247V11.4184C28.6222 11.1192 28.7333 10.8322 28.9273 10.6043C29.1213 10.3763 29.3868 10.2208 29.6806 10.163L31.0161 9.83711H31.0749C31.2562 9.77785 31.4113 9.6574 31.5137 9.49638C31.616 9.33536 31.6592 9.14378 31.6358 8.95443C31.6125 8.76507 31.524 8.58973 31.3856 8.45839C31.2472 8.32706 31.0675 8.24791 30.8772 8.23448H19.4184C19.2284 8.2489 19.0494 8.32879 18.9118 8.46052C18.7741 8.59224 18.6865 8.76765 18.6638 8.95679C18.6411 9.14593 18.6848 9.33709 18.7873 9.49763C18.8898 9.65818 19.0449 9.77817 19.2261 9.83711H19.2848L20.6204 10.163C20.9464 10.2345 21.235 10.4229 21.4318 10.6925C21.6286 10.9621 21.72 11.2944 21.6888 11.6267V19.5758H14.2098C14.0521 19.5729 13.8954 19.6017 13.749 19.6604C13.6026 19.7191 13.4694 19.8066 13.3573 19.9176C13.2453 20.0287 13.1566 20.1611 13.0966 20.307C13.0366 20.4529 13.0064 20.6093 13.0079 20.7671C13.0079 21.8355 14.2205 21.8355 14.2205 21.8355H21.6995V30.9171C21.6866 31.2154 21.5745 31.5009 21.381 31.7283C21.1874 31.9558 20.9235 32.1121 20.631 32.1725L19.2955 32.4983H19.2368C19.0556 32.5573 18.9005 32.6773 18.798 32.8378C18.6955 32.9984 18.6518 33.1895 18.6745 33.3786C18.6972 33.5678 18.7848 33.7432 18.9224 33.8749C19.0601 34.0066 19.2391 34.0865 19.4291 34.101H30.8772C31.0675 34.0875 31.2472 34.0084 31.3856 33.877C31.524 33.7457 31.6125 33.5704 31.6358 33.381C31.6592 33.1917 31.616 33.0001 31.5137 32.8391C31.4113 32.678 31.2562 32.5576 31.0749 32.4983V32.5143Z" fill="#25365D"/>
<path d="M64.7357 32.5143H64.7944L64.8853 32.493C65.0666 32.5522 65.2217 32.6727 65.3241 32.8337C65.4264 32.9947 65.4696 33.1863 65.4462 33.3757C65.4229 33.565 65.3344 33.7404 65.196 33.8717C65.0576 34.003 64.8779 34.0822 64.6876 34.0956H60.5849L58.7953 34.0636H54.6925C54.5022 34.0501 54.3225 33.971 54.1841 33.8396C54.0457 33.7083 53.9573 33.533 53.9339 33.3436C53.9106 33.1543 53.9538 32.9627 54.0561 32.8017C54.1584 32.6406 54.3135 32.5202 54.4949 32.4609H54.5536L55.2802 32.2045C55.5828 32.1325 55.8536 31.9636 56.0513 31.7235C56.249 31.4833 56.3628 31.1851 56.3753 30.8743V18.908C56.3753 17.9733 55.9687 17.7146 55.2267 17.2425L55.1735 17.2086L55.0825 17.1505C54.8976 17.081 54.7383 16.9569 54.6257 16.7947C54.5131 16.6325 54.4525 16.4398 54.4521 16.2423C54.4532 16.0139 54.5337 15.7929 54.6799 15.6175C54.8262 15.442 55.029 15.3229 55.2534 15.2807L61.4129 14.0146H61.5411C61.5927 14.012 61.6444 14.012 61.696 14.0146C61.8585 14.0139 62.0196 14.0453 62.1699 14.107C62.3202 14.1687 62.4569 14.2595 62.5721 14.3742C62.6872 14.4888 62.7786 14.6251 62.841 14.7752C62.9033 14.9253 62.9354 15.0862 62.9354 15.2487V30.9331C62.9472 31.2401 63.0574 31.5352 63.2498 31.7747C63.4422 32.0143 63.7066 32.1855 64.0038 32.2633L64.7357 32.5143Z" fill="#25365D"/>
<path d="M161.497 32.5144H161.438L160.712 32.2633C160.41 32.1897 160.14 32.0203 159.943 31.7805C159.745 31.5407 159.631 31.2434 159.617 30.9331V15.2487C159.614 14.9213 159.482 14.6083 159.25 14.3773C159.018 14.1463 158.705 14.016 158.377 14.0146C158.326 14.0117 158.274 14.0117 158.222 14.0146H158.094L151.935 15.2807C151.727 15.3203 151.537 15.4264 151.394 15.5831C151.252 15.7397 151.164 15.9384 151.144 16.1494C151.124 16.3603 151.173 16.5719 151.284 16.7525C151.395 16.933 151.561 17.0727 151.758 17.1505C151.807 17.1813 151.854 17.2111 151.9 17.2402C152.649 17.7137 153.057 17.9718 153.057 18.908V30.8743C153.047 31.1818 152.937 31.4777 152.744 31.7176C152.552 31.9575 152.286 32.1283 151.988 32.2045L151.256 32.4609H151.203C151.022 32.5199 150.867 32.6399 150.764 32.8004C150.662 32.961 150.618 33.1521 150.641 33.3413C150.663 33.5304 150.751 33.7058 150.889 33.8375C151.026 33.9693 151.205 34.0492 151.395 34.0636H155.503L157.293 34.0956H161.332C161.521 34.0812 161.701 34.0013 161.838 33.8696C161.976 33.7379 162.063 33.5625 162.086 33.3733C162.109 33.1842 162.065 32.993 161.963 32.8325C161.86 32.6719 161.705 32.5519 161.524 32.493L161.497 32.5144Z" fill="#25365D"/>
<path d="M77.2733 32.5144H77.3321L77.4176 32.4983C77.5941 32.5621 77.7437 32.6839 77.842 32.8438C77.9402 33.0037 77.9812 33.1922 77.9582 33.3785C77.9352 33.5648 77.8497 33.7377 77.7155 33.869C77.5814 34.0002 77.4066 34.082 77.2199 34.101H67.4171C67.2272 34.0865 67.0481 34.0067 66.9105 33.8749C66.7729 33.7432 66.6853 33.5678 66.6626 33.3787C66.6399 33.1895 66.6835 32.9984 66.7861 32.8378C66.8886 32.6773 67.0437 32.5573 67.2248 32.4983H67.2783L68.0048 32.2419C68.3024 32.165 68.5673 31.9939 68.7598 31.7542C68.9523 31.5145 69.0623 31.219 69.0732 30.9117V21.5844C69.0732 19.5758 68.7366 17.1932 66.2259 17.1932C65.8774 17.1949 65.5319 17.2582 65.2055 17.3802C65.1073 17.4276 64.9994 17.4513 64.8903 17.4496C64.7889 17.4503 64.6883 17.4309 64.5943 17.3926C64.5004 17.3543 64.4149 17.2977 64.3429 17.2262C64.2709 17.1547 64.2138 17.0697 64.1748 16.976C64.1358 16.8823 64.1157 16.7818 64.1157 16.6804C64.1222 16.4797 64.2042 16.2889 64.3454 16.1461C64.9805 15.451 65.7575 14.9004 66.6239 14.5317C67.4903 14.1631 68.4258 13.9849 69.367 14.0093C73.5926 14.0093 75.473 17.1505 75.473 21.0822V30.9331C75.484 31.2403 75.5939 31.5358 75.7864 31.7755C75.979 32.0152 76.2438 32.1863 76.5415 32.2633L77.2733 32.5144Z" fill="#25365D"/>
<path d="M175.013 32.5143H174.954L174.228 32.2633C173.925 32.1905 173.655 32.0213 173.457 31.7814C173.26 31.5414 173.146 31.2436 173.132 30.9331V29.0099L173.084 25.1369V15.2487C173.084 15.0862 173.052 14.9253 172.99 14.7752C172.928 14.6251 172.836 14.4888 172.721 14.3742C172.606 14.2595 172.469 14.1687 172.319 14.107C172.168 14.0453 172.007 14.0139 171.845 14.0146C171.793 14.012 171.742 14.012 171.69 14.0146H171.562L165.402 15.2807C165.178 15.3229 164.975 15.442 164.829 15.6175C164.683 15.7929 164.602 16.0139 164.601 16.2423C164.601 16.4398 164.662 16.6325 164.775 16.7947C164.887 16.9569 165.047 17.081 165.231 17.1505C165.281 17.1821 165.329 17.2127 165.376 17.2425C166.118 17.7146 166.524 17.9733 166.524 18.908V30.8743C166.512 31.1851 166.398 31.4833 166.2 31.7235C166.002 31.9636 165.732 32.1325 165.429 32.2045L164.697 32.4609H164.638C164.457 32.5202 164.302 32.6406 164.2 32.8017C164.097 32.9627 164.054 33.1543 164.077 33.3436C164.101 33.533 164.189 33.7083 164.328 33.8396C164.466 33.971 164.646 34.0501 164.836 34.0636H168.939L170.728 34.0956H174.831C175.021 34.0822 175.201 34.003 175.34 33.8717C175.478 33.7404 175.566 33.565 175.59 33.3757C175.613 33.1863 175.57 32.9947 175.468 32.8337C175.365 32.6727 175.21 32.5522 175.029 32.493L175.013 32.5143Z" fill="#25365D"/>
<path d="M187.492 32.5144H187.551L187.631 32.4983C187.808 32.5621 187.957 32.6839 188.055 32.8438C188.154 33.0037 188.195 33.1923 188.172 33.3785C188.149 33.5648 188.063 33.7377 187.929 33.869C187.795 34.0002 187.62 34.082 187.433 34.101H177.631C177.441 34.0865 177.262 34.0067 177.124 33.8749C176.986 33.7432 176.899 33.5678 176.876 33.3787C176.853 33.1895 176.897 32.9984 176.999 32.8378C177.102 32.6773 177.257 32.5573 177.438 32.4983H177.492L178.224 32.2419C178.521 32.165 178.786 31.9939 178.979 31.7542C179.171 31.5145 179.281 31.219 179.292 30.9117V21.5844C179.292 19.5758 178.955 17.1932 176.445 17.1932C176.096 17.1949 175.751 17.2582 175.424 17.3802C175.326 17.4276 175.218 17.4513 175.109 17.4496C175.008 17.4503 174.907 17.431 174.813 17.3926C174.719 17.3543 174.634 17.2977 174.562 17.2262C174.49 17.1547 174.433 17.0697 174.394 16.976C174.355 16.8823 174.334 16.7818 174.334 16.6804C174.341 16.4786 174.425 16.2871 174.57 16.1462C175.203 15.4506 175.979 14.8997 176.845 14.5309C177.71 14.1622 178.645 13.9843 179.586 14.0093C183.811 14.0093 185.692 17.1505 185.692 21.0823V30.9331C185.704 31.2401 185.814 31.5352 186.006 31.7747C186.199 32.0143 186.463 32.1856 186.76 32.2633L187.492 32.5144Z" fill="#25365D"/>
<path fill-rule="evenodd" clip-rule="evenodd" d="M138.318 14.0093C131.453 14.0093 127.687 18.6142 127.687 24.3035C127.687 30.4096 131.426 34.6352 138.318 34.6352C145.209 34.6352 148.901 29.9448 148.901 24.2608C148.901 18.2349 145.161 14.0093 138.318 14.0093ZM138.318 33.0486C135.93 33.0486 134.803 29.7845 134.803 24.2608C134.803 17.8182 136.405 15.7134 138.318 15.7134C140.658 15.7134 141.833 18.5982 141.833 24.2608C141.833 30.7034 140.155 33.0913 138.318 33.0913V33.0486Z" fill="#25365D"/>
<path d="M89.2825 14.0253C90.2421 14.0008 91.1877 14.259 92.0016 14.7679V14.7786C92.1479 14.8804 92.2577 15.0265 92.3148 15.1954C92.3719 15.3642 92.3733 15.547 92.319 15.7167C92.2646 15.8865 92.1572 16.0343 92.0126 16.1385C91.868 16.2427 91.6937 16.2978 91.5155 16.2957H91.0828C88.2782 16.2957 86.355 19.517 86.355 24.4531C86.355 29.0153 88.6147 31.1895 90.9172 31.1895C91.1718 31.2148 91.4119 31.3203 91.6026 31.4909C91.7934 31.6615 91.925 31.8883 91.9785 32.1385C92.032 32.3888 92.0046 32.6496 91.9003 32.8832C91.7959 33.1169 91.62 33.3113 91.398 33.4385C90.4033 34.225 89.1722 34.6523 87.9042 34.6512C82.9681 34.6512 79.7041 31.1788 79.7041 24.6134C79.7041 18.5447 84.0526 14.0253 89.2825 14.0253Z" fill="#25365D"/>
<path d="M115.737 34.7206C114.776 34.745 113.828 34.4868 113.012 33.9781L113.018 33.9674C112.871 33.8655 112.762 33.7194 112.705 33.5506C112.647 33.3817 112.646 33.199 112.7 33.0293C112.755 32.8595 112.862 32.7117 113.007 32.6075C113.151 32.5032 113.326 32.4481 113.504 32.4502H113.937C116.741 32.4502 118.664 29.229 118.664 24.2929C118.664 19.7307 116.405 17.5565 114.102 17.5565C113.848 17.5312 113.607 17.4256 113.417 17.255C113.226 17.0845 113.094 16.8577 113.041 16.6074C112.987 16.3572 113.015 16.0964 113.119 15.8628C113.223 15.6291 113.399 15.4346 113.621 15.3074C114.616 14.521 115.847 14.0937 117.115 14.0948C122.051 14.0948 125.315 17.5671 125.315 24.1326C125.315 30.2012 120.967 34.7206 115.737 34.7206Z" fill="#25365D"/>
<path d="M103.573 16.3331L104.267 16.6162C104.636 16.7724 104.945 17.0432 105.148 17.3886C105.351 17.7341 105.438 18.1357 105.394 18.5341V38.1663C105.394 39.6941 105.341 41.5585 105.218 43.081C105.215 43.1041 105.215 43.1274 105.218 43.1505C105.22 43.4235 105.329 43.6849 105.522 43.878C105.715 44.071 105.976 44.1801 106.249 44.1815H106.356L113.685 42.9047C113.891 42.8793 114.082 42.7824 114.224 42.631C114.365 42.4797 114.45 42.2834 114.462 42.0763C114.474 41.8692 114.413 41.6644 114.29 41.4976C114.166 41.3308 113.988 41.2125 113.787 41.1632C112.403 40.6878 111.96 40.1642 111.96 37.958V14.9495C111.958 14.7082 111.862 14.4772 111.69 14.307C111.519 14.1369 111.288 14.0413 111.046 14.0414H110.945L103.776 14.8373C103.6 14.8557 103.435 14.9331 103.308 15.0569C103.181 15.1808 103.1 15.3439 103.078 15.5196C103.056 15.6954 103.094 15.8736 103.185 16.0251C103.277 16.1767 103.417 16.2928 103.583 16.3545L103.573 16.3331Z" fill="#25365D"/>
<path d="M201.775 31.2071C201.875 31.3073 201.932 31.4431 201.932 31.5848L201.958 31.6008C201.956 31.722 201.913 31.8388 201.835 31.9321C201.162 32.8066 200.29 33.508 199.291 33.9781C198.292 34.4482 197.196 34.6734 196.093 34.6352C191.782 34.6352 190.067 32.1083 190.067 28.9031V17.0009H188.144C188.005 17.011 187.866 16.9924 187.735 16.9464C187.604 16.9003 187.484 16.8278 187.383 16.7333C187.281 16.6388 187.2 16.5244 187.145 16.3972C187.089 16.2699 187.061 16.1327 187.061 15.9939C187.061 15.8551 187.089 15.7178 187.145 15.5906C187.2 15.4634 187.281 15.349 187.383 15.2545C187.484 15.16 187.604 15.0874 187.735 15.0414C187.866 14.9954 188.005 14.9768 188.144 14.9869H188.186C189.655 14.892 191.042 14.2796 192.101 13.2584C193.16 12.2373 193.823 10.8736 193.972 9.40974H196.589V15.019H200.078C200.326 15.0432 200.555 15.1607 200.72 15.3478C200.885 15.5349 200.972 15.7776 200.965 16.0267C200.957 16.2758 200.856 16.5128 200.68 16.6897C200.504 16.8666 200.268 16.9702 200.019 16.9795H196.579V27.5676C196.579 30.2012 197.289 31.5421 199.378 31.5421C199.974 31.5302 200.561 31.3975 201.104 31.1521C201.189 31.0899 201.292 31.0546 201.397 31.0506C201.539 31.0506 201.675 31.1069 201.775 31.2071Z" fill="#25365D"/>
</svg>
