<svg xmlns="http://www.w3.org/2000/svg" xmlns:xlink="http://www.w3.org/1999/xlink" version="1.1" x="0px" y="0px" viewBox="0 0 100 125" enable-background="new 0 0 100 100" xml:space="preserve"><g enable-background="new    "><g><g><path fill-rule="evenodd" clip-rule="evenodd" d="M62.673,26.088c-1.286-0.504-2.736,0.13-3.24,1.415L46.296,61.021     c-0.504,1.285,0.13,2.735,1.416,3.239s2.736-0.13,3.24-1.415l13.136-33.519C64.592,28.042,63.958,26.592,62.673,26.088z"/></g></g></g><g enable-background="new    "><g><g><path fill-rule="evenodd" clip-rule="evenodd" d="M51.024,61.213L40.493,36.352c-0.539-1.271-2.006-1.865-3.277-1.327     c-1.271,0.539-1.866,2.006-1.327,3.277l10.532,24.861c0.539,1.271,2.006,1.865,3.277,1.327     C50.97,63.951,51.563,62.484,51.024,61.213z"/></g></g></g><g enable-background="new    "><g><g><path fill-rule="evenodd" clip-rule="evenodd" d="M30.5,48h-13c-1.381,0-2.5,1.119-2.5,2.5s1.119,2.5,2.5,2.5h13     c1.381,0,2.5-1.119,2.5-2.5S31.881,48,30.5,48z"/></g></g></g><g enable-background="new    "><g><g><path fill-rule="evenodd" clip-rule="evenodd" d="M38.762,34.886c-1.236-0.615-2.737-0.111-3.352,1.125l-6.683,13.429     c-0.615,1.236-0.112,2.736,1.125,3.352c1.236,0.615,2.737,0.112,3.352-1.124l6.683-13.429     C40.501,37.002,39.998,35.501,38.762,34.886z"/></g></g></g><g enable-background="new    "><g><g><path fill-rule="evenodd" clip-rule="evenodd" d="M70.889,49.412l-6.006-21.164c-0.452-1.594-2.111-2.52-3.705-2.067     c-1.594,0.453-2.52,2.111-2.066,3.705l6.006,21.165c0.452,1.594,2.111,2.519,3.705,2.066S71.342,51.006,70.889,49.412z"/></g></g></g><g enable-background="new    "><g><g><path fill-rule="evenodd" clip-rule="evenodd" d="M82.5,48h-13c-1.381,0-2.5,1.119-2.5,2.5s1.119,2.5,2.5,2.5h13     c1.381,0,2.5-1.119,2.5-2.5S83.881,48,82.5,48z"/></g></g></g><g enable-background="new    "><g><g><path fill-rule="evenodd" clip-rule="evenodd" d="M85,10H15C9.477,10,5,14.478,5,20v50c0,5.522,4.477,10,10,10h70     c5.522,0,10-4.478,10-10V20C95,14.478,90.522,10,85,10z M90,69c0,5-1,6-6,6H16c-4,0-6-2-6-6V21c0-4,2-6,6-6h68c4,0,6,2,6,6V69z"/></g></g></g><g enable-background="new    "><g><g><path fill-rule="evenodd" clip-rule="evenodd" d="M72.5,85h-45c-1.381,0-2.5,1.119-2.5,2.5s1.119,2.5,2.5,2.5h45     c1.381,0,2.5-1.119,2.5-2.5S73.881,85,72.5,85z"/></g></g></g><g enable-background="new    "><g><g><path fill-rule="evenodd" clip-rule="evenodd" d="M57.5,82h-15c-1.381,0-2.5,1.119-2.5,2.5s1.119,2.5,2.5,2.5h15     c1.381,0,2.5-1.119,2.5-2.5S58.881,82,57.5,82z"/></g></g></g><text x="0" y="115" fill="#000000" font-size="5px" font-weight="bold" font-family="'Helvetica Neue', Helvetica, Arial-Unicode, Arial, Sans-serif">Created by Rabee Balakrishnan</text><text x="0" y="120" fill="#000000" font-size="5px" font-weight="bold" font-family="'Helvetica Neue', Helvetica, Arial-Unicode, Arial, Sans-serif">from the Noun Project</text></svg>