<svg id="Layer_1" data-name="Layer 1" xmlns="http://www.w3.org/2000/svg" viewBox="0 0 380 84"><defs><style>.cls-1{fill:#ea7d17;}.cls-2{fill:#353535;}</style></defs><title>Artboard 2</title><path class="cls-1" d="M284.41,15.05a1.19,1.19,0,0,1-.35-.66c0-.27.13-.4.61-.62l4.93-2.5L284.67,8.8c-.48-.22-.61-.35-.61-.61a1.16,1.16,0,0,1,.35-.66L286,5.24a.91.91,0,0,1,.66-.49c.22,0,.48.23.66.4l3.78,4L292,3.7c0-.44.13-.84.53-.84a3.1,3.1,0,0,1,.57.13l2.68.88c.4.14.71.27.71.58a1.46,1.46,0,0,1-.23.61L293.65,10,299.06,9a2.2,2.2,0,0,1,.49,0c.48,0,.48.48.48.88v2.86c0,.39,0,.88-.48.88a1.77,1.77,0,0,1-.49,0l-5.41-.92,2.59,4.88a1.5,1.5,0,0,1,.23.62c0,.31-.31.44-.71.57l-2.68.88a3.1,3.1,0,0,1-.57.13c-.4,0-.49-.39-.53-.83l-.84-5.41-3.78,4a1.17,1.17,0,0,1-.66.4.9.9,0,0,1-.66-.48Z"/><path class="cls-1" d="M292.51,20.24c-.92,0-1-1-1.06-1.31l-.67-4.33-3,3.19a1.27,1.27,0,0,1-2.16-.18L284,15.35a1.55,1.55,0,0,1-.45-1c0-.68.56-.93.93-1.1l4-2-4-2c-.35-.16-.91-.41-.91-1.08a1.6,1.6,0,0,1,.47-1l1.61-2.27a1.38,1.38,0,0,1,1.09-.7,1.53,1.53,0,0,1,1,.55l3,3.19.68-4.35c0-.3.13-1.29,1.05-1.29a2,2,0,0,1,.56.11l.14,0,2.72.89c.34.12,1.06.36,1.06,1.08a1.8,1.8,0,0,1-.23.77l-2.14,4L299,8.5a2.4,2.4,0,0,1,.58-.05c1,0,1,1.06,1,1.41v2.86c0,.35,0,1.4-1,1.4a2.52,2.52,0,0,1-.59,0l-4.34-.74,2.09,3.93a2,2,0,0,1,.28.87c0,.72-.72,1-1.06,1.07l-2.87.93a1.85,1.85,0,0,1-.55.11m-1-7.91,1,6.46a2,2,0,0,0,.06.39l.2-.06.19-.05,2.65-.87A1.38,1.38,0,0,0,296,18s-.11-.12-.16-.21l-3.13-5.9,6.47,1.1a1.6,1.6,0,0,0,.33,0,2.11,2.11,0,0,0,0-.35V9.86a2.17,2.17,0,0,0,0-.36,1.45,1.45,0,0,0-.32,0l-6.48,1.11,3.1-5.84a1.68,1.68,0,0,0,.15-.34s-.11,0-.34-.09l-2.83-.93-.22-.06s0,.14,0,.36l-1,6.5L287,5.52a1,1,0,0,0-.31-.24s-.11.11-.18.23l-1.65,2.32a2.63,2.63,0,0,0-.25.35,2.18,2.18,0,0,1,.3.14l5.89,2.94-5.87,3c-.28.13-.34.18-.35.2s.18.18.26.28L286.47,17a.66.66,0,0,0,.25.26s.09-.06.27-.24Z"/><path class="cls-2" d="M98.22,61.09a1.38,1.38,0,0,0-1.1-1.34h0a10.37,10.37,0,0,1-2.58-.66A21.64,21.64,0,0,1,94,53.21V36.45c0-8.22-6.82-11.28-14-11.28a19.61,19.61,0,0,0-9.19,2.37l-.37.22,0,0a1.16,1.16,0,0,0,.71,2.09,1.14,1.14,0,0,0,.49-.11A7.47,7.47,0,0,1,74.56,29c3.76,0,7.13,1.57,7.13,8.3v4.23L75.35,43c-6,1.33-13.86,4-13.86,11.12,0,6.34,3.91,9.63,10.65,9.63A10.66,10.66,0,0,0,79,61.34l.17-.13.08-.07h0A1.61,1.61,0,0,0,79.73,60a1.64,1.64,0,0,0-1.64-1.65,1.24,1.24,0,0,0-.33,0h0a5.34,5.34,0,0,1-1.08.11c-3,0-4.7-2.12-4.7-5.64,0-5.17,4.07-6.74,7.83-7.83l1.88-.63V56l.08,2.35c.13,2.88,3.29,5.48,8.14,5.48a32.07,32.07,0,0,0,7.27-1.36h0a1.37,1.37,0,0,0,1-1.32"/><path class="cls-2" d="M7.74,53.25v3.56a2.51,2.51,0,0,1-2,2.35l-2.5.61h0l-.11,0h0a1.54,1.54,0,0,0,.36,3H24.89a1.54,1.54,0,0,0,.37-3h0l-.11,0h0l-2.5-.61a2.56,2.56,0,0,1-2-2.74v-3l0-4.52V20.32a2.48,2.48,0,0,1,2-2.35l2.5-.61h0l.11,0h0a1.54,1.54,0,0,0-.37-3H3.44a1.54,1.54,0,0,0-.36,3h0l.11,0h0l2.5.61a2.56,2.56,0,0,1,2,2.74V53.25Z"/><path class="cls-2" d="M58.17,59.81h0l-.11,0h0l-2.5-.61a2.56,2.56,0,0,1-2-2.74v-3l0-4.52V20.32a2.48,2.48,0,0,1,2-2.35l2.5-.61h0l.11,0h0a1.54,1.54,0,0,0-.37-3H36.35a1.54,1.54,0,0,0-.36,3h0l.11,0h0l2.5.61a2.56,2.56,0,0,1,2,2.74V35.59h-14a2.21,2.21,0,0,0-2.25,2.23c0,2,2.27,2,2.27,2h14v17a2.51,2.51,0,0,1-2,2.35l-2.5.61h0l-.11,0h0a1.54,1.54,0,0,0,.36,3H57.8a1.54,1.54,0,0,0,.37-3"/><path class="cls-2" d="M121.29,59.81h0l-.11,0h0l-1.37-.47a2.68,2.68,0,0,1-2-2.49V53.25l0-7.29V27.49h0a2.31,2.31,0,0,0-2.32-2.31,2.85,2.85,0,0,0-.29,0h0l-.1,0-.14,0-11.53,2.37h0a1.84,1.84,0,0,0-1.5,1.8,1.82,1.82,0,0,0,1.18,1.7c1.56,1,2.42,1.43,2.42,3.29V47.08l0,6.1v3.56a2.67,2.67,0,0,1-2.05,2.49l-1.36.48h0l-.11,0h0a1.54,1.54,0,0,0,.37,3h7.68l3.35.06h7.68a1.54,1.54,0,0,0,.37-3"/><path class="cls-2" d="M302.31,59.81h0l-.11,0h0l-1.36-.47a2.69,2.69,0,0,1-2.05-2.49V53.25l0-7.29V27.49h0a2.33,2.33,0,0,0-2.32-2.31,2.58,2.58,0,0,0-.29,0h0l-.1,0-.14,0-11.53,2.37h0a1.83,1.83,0,0,0-.33,3.5c1.57,1,2.43,1.43,2.43,3.29V47.08l0,6.1v3.56a2.66,2.66,0,0,1-2,2.49l-1.37.48h0l-.1,0h0a1.54,1.54,0,0,0,.36,3h7.69l3.35.06H302a1.54,1.54,0,0,0,.36-3"/><path class="cls-2" d="M144.76,59.81h0l-.11,0h0l-1.37-.47a2.67,2.67,0,0,1-2-2.49V38.41c0-7.36-3.52-13.24-11.43-13.24a12.3,12.3,0,0,0-9.4,4,1.49,1.49,0,0,0-.43,1,1.44,1.44,0,0,0,1.45,1.44,1.31,1.31,0,0,0,.59-.13,5.53,5.53,0,0,1,1.91-.35c4.7,0,5.33,4.46,5.33,8.22V56.81a2.67,2.67,0,0,1-2,2.49l-1.36.48h0l-.1,0h0a1.54,1.54,0,0,0,.36,3h7.22l3.42,0h7.71a1.55,1.55,0,0,0,.37-3"/><path class="cls-2" d="M327.61,59.81h0l-.11,0h0l-1.36-.47a2.68,2.68,0,0,1-2.05-2.49V53.25L324,46V27.49h0a2.31,2.31,0,0,0-2.32-2.31,2.85,2.85,0,0,0-.29,0h0l-.1,0-.14,0-11.53,2.37h0a1.84,1.84,0,0,0-1.5,1.8,1.82,1.82,0,0,0,1.18,1.7c1.56,1,2.42,1.43,2.42,3.29V47.08l0,6.1v3.56a2.67,2.67,0,0,1-2.05,2.49l-1.37.48h0l-.11,0h0a1.54,1.54,0,0,0,.37,3h7.68l3.35.06h7.68a1.54,1.54,0,0,0,.37-3"/><path class="cls-2" d="M351.08,59.81h0l-.11,0h0l-1.37-.47a2.68,2.68,0,0,1-2-2.49V38.41c0-7.36-3.52-13.24-11.43-13.24a12.26,12.26,0,0,0-9.39,4,1.46,1.46,0,0,0-.44,1,1.44,1.44,0,0,0,1.45,1.44,1.31,1.31,0,0,0,.59-.13,5.53,5.53,0,0,1,1.91-.35c4.7,0,5.33,4.46,5.33,8.22V56.81a2.67,2.67,0,0,1-2,2.49l-1.37.48h0l-.1,0h0a1.54,1.54,0,0,0,.36,3h7.22l3.42,0h7.71a1.55,1.55,0,0,0,.37-3"/><path class="cls-2" d="M258.92,25.17c-12.85,0-19.9,8.62-19.9,19.27,0,11.43,7,19.34,19.9,19.34S278.73,55,278.73,44.36c0-11.28-7-19.19-19.81-19.19m0,35.64c-4.47,0-6.58-6.11-6.58-16.45,0-12.06,3-16,6.58-16,4.38,0,6.58,5.4,6.58,16,0,12.06-3.14,16.53-6.58,16.53"/><path class="cls-2" d="M172.22,26.59v0a9.16,9.16,0,0,0-5.09-1.39c-9.79,0-17.93,8.46-17.93,19.82,0,12.29,6.11,18.79,15.35,18.79a10.53,10.53,0,0,0,6.54-2.27,2.26,2.26,0,0,0-.9-4.21v0c-4.31,0-8.54-4.07-8.54-12.61,0-9.24,3.6-15.27,8.85-15.27l.68,0h.13a1.56,1.56,0,0,0,.91-2.84"/><path class="cls-2" d="M189.89,59.62h0l-1.3-.53a3.49,3.49,0,0,1-2.12-3.59V18.75c0-2.85.1-6.35.34-9.2l0,0a.51.51,0,0,0,0-.13,1.94,1.94,0,0,0-1.94-1.93h-.2L171,9.86h0a1.66,1.66,0,0,0-.2,3.31v0c2.58.89,3.42,1.87,3.42,6v43h0s0,0,0,.07a1.7,1.7,0,0,0,1.7,1.7l.19,0,0,0,13.42-1.49h0A1.47,1.47,0,0,0,190.85,61a1.49,1.49,0,0,0-1-1.38"/><path class="cls-2" d="M211.55,62.55v0a9.2,9.2,0,0,0,5.1,1.39c9.79,0,17.93-8.46,17.93-19.82,0-12.29-6.11-18.79-15.35-18.79a10.53,10.53,0,0,0-6.54,2.27,2.26,2.26,0,0,0,.9,4.21v0c4.31,0,8.54,4.07,8.54,12.61,0,9.24-3.6,15.27-8.85,15.27l-.68,0h-.13a1.56,1.56,0,0,0-.91,2.84"/><path class="cls-2" d="M193.88,29.52h0l1.3.53a3.49,3.49,0,0,1,2.11,3.59V70.39c0,2.86-.1,6.35-.33,9.2l0,0a.51.51,0,0,0,0,.13,1.94,1.94,0,0,0,1.93,1.93h.2l13.72-2.39h0A1.66,1.66,0,0,0,213,76v0c-2.59-.89-3.42-1.87-3.42-6V27h0s0,0,0-.07a1.71,1.71,0,0,0-1.71-1.7l-.19,0,0,0-13.42,1.49h0a1.47,1.47,0,0,0-.36,2.84"/><path class="cls-2" d="M378,58.07a1,1,0,0,0-1-1,1,1,0,0,0-.55.19h0a8.24,8.24,0,0,1-3.23.73c-3.91,0-5.24-2.51-5.24-7.44V30.73h6.44a1.84,1.84,0,0,0,.11-3.67H368V16.56h-4.9A11.64,11.64,0,0,1,352.27,27h-.08a1.89,1.89,0,1,0,0,3.77h3.6V53.05c0,6,3.21,10.73,11.28,10.73a13,13,0,0,0,10.75-5.06l0,0a1,1,0,0,0,.23-.62"/></svg>